<?xml version="1.0" encoding="utf-8"?>
<!-- Generator: Adobe Illustrator 23.0.1, SVG Export Plug-In . SVG Version: 6.00 Build 0)  -->
<svg version="1.1" id="Layer_1" xmlns="http://www.w3.org/2000/svg" xmlns:xlink="http://www.w3.org/1999/xlink" x="0px" y="0px"
	 viewBox="0 0 1280 1024" style="enable-background:new 0 0 1280 1024;" xml:space="preserve">
<style type="text/css">
	.st0{fill:none;stroke:#EB452B;stroke-width:4;stroke-miterlimit:10;}
	.st1{fill:none;stroke:#EC542C;stroke-width:4;stroke-miterlimit:10;}
	.st2{fill:none;stroke:#EC632D;stroke-width:4;stroke-miterlimit:10;}
	.st3{fill:none;stroke:#ED722F;stroke-width:4;stroke-miterlimit:10;}
	.st4{fill:none;stroke:#EE8230;stroke-width:4;stroke-miterlimit:10;}
	.st5{fill:none;stroke:#EE9131;stroke-width:4;stroke-miterlimit:10;}
	.st6{fill:none;stroke:#EFA032;stroke-width:4;stroke-miterlimit:10;}
</style>
<line class="st0" x1="437.12" y1="312.88" x2="437.37" y2="312.79"/>
<g>
	<path class="st0" d="M79.02,165.83c74.42,218.12,117.67,265.92,144.07,262.21c29.3-4.12,33.48-60.36,87.95-121.88
		c33.32-37.64,72.66-84.4,164.25-53.42c77.08,26.07,137.58-34.9,200.13-14.35c80.12,26.31,124.59,96.97,144.32,135.55"/>
	<path class="st1" d="M77,177.89c78.63,201.78,127.67,245.57,158.73,241.9c31.87-3.77,37.92-53.96,94.98-108.87
		c8.64-8.38,17.84-17.19,28.09-25.45c29.96-24.14,68.86-45.65,132.84-32.95c73.66,14.63,134.05-46.32,192.39-27.16
		c80.12,26.31,113.96,122.06,133.69,160.63"/>
	<path class="st2" d="M74.97,189.95c82.85,185.44,137.65,225.18,173.39,221.58c34.44-3.47,42.52-47.38,102-95.86
		c8.97-7.31,18.59-14.97,29.3-22.28c30.44-20.78,69.34-43.55,128.31-41.09c70.63,2.95,130.53-57.75,184.66-39.97
		c80.12,26.31,103.33,147.15,123.06,185.72"/>
	<path class="st3" d="M72.95,202C160.02,371.09,220.59,406.76,261,403.27c37.01-3.19,46.97-40.94,109.03-82.85
		c9.27-6.26,19.32-12.77,30.51-19.11c30.85-17.48,70.04-41.93,123.78-49.23c67.89-9.23,127.01-69.17,176.92-52.78
		c80.12,26.31,92.7,172.23,112.43,210.81"/>
	<path class="st4" d="M70.93,214.06c91.29,152.75,157.63,184.31,202.71,180.96c39.57-2.94,51.38-34.55,116.06-69.84
		c9.57-5.22,20.04-10.61,31.72-15.94c31.21-14.25,70.73-40.89,119.25-57.38c65.13-22.13,123.49-80.6,169.18-65.59
		c80.12,26.31,82.07,197.32,101.8,235.89"/>
	<path class="st5" d="M68.91,226.11c95.5,136.4,167.61,163.79,217.36,160.64c42.13-2.76,55.77-28.23,123.08-56.83
		c9.86-4.19,20.74-8.48,32.93-12.77c31.55-11.12,71.07-40.33,114.72-65.52c61.9-35.72,119.96-92.02,161.44-78.4
		c80.12,26.31,71.44,222.41,91.17,260.98"/>
	<path class="st6" d="M66.88,238.17c99.72,120.06,177.59,143.36,232.02,140.33c51.18-2.85,64.02-28,164.25-53.42
		c78.87-20.01,201.35-185.42,263.9-164.87c80.12,26.31,60.81,247.49,80.54,286.07"/>
</g>
</svg>
