<?xml version="1.0" encoding="utf-8"?>
<!-- Generator: Adobe Illustrator 23.0.1, SVG Export Plug-In . SVG Version: 6.00 Build 0)  -->
<svg version="1.1" id="Layer_1" xmlns="http://www.w3.org/2000/svg" xmlns:xlink="http://www.w3.org/1999/xlink" x="0px" y="0px"
	 viewBox="0 0 1280 1024" style="enable-background:new 0 0 1280 1024;" xml:space="preserve">
<style type="text/css">
	.st0{fill:none;stroke:#EB452B;stroke-width:3;stroke-miterlimit:10;}
</style>
<g>
	<path class="st0" d="M69.01,111.37c161.36-30.07,245.4,4.05,292.59,43.21c62.96,52.23,47.31,104.74,117.28,164.2
		c91.05,77.37,167.63,14.48,297.91,67.27c173.09,70.13,193.92,239.91,282.72,232.1c41.59-3.66,96.39-46.13,151.47-221.59"/>
	<path class="st0" d="M69.01,149.54c181.91-45.76,267.52-18.02,310.49,19.75c56.37,49.54,30.35,103.66,92.66,165.84
		c81.96,81.8,179.65,34.01,295.17,77.66c163.53,61.8,187.2,196.55,286.56,190.53c50.08-3.03,108.39-36.27,162.71-180.75"/>
	<path class="st0" d="M69.01,187.7c202.45-61.45,289.65-40.12,328.4-3.7c49.8,46.8,13.36,102.67,68.03,167.49
		c72.82,86.34,191.82,53.27,292.44,88.06c154.14,53.29,180.5,153.34,290.41,148.97c58.58-2.33,120.4-26.41,173.95-139.91"/>
	<path class="st0" d="M69.01,225.87c222.99-77.14,311.81-62.25,346.3-27.16c43.26,44.02-3.7,101.76,43.4,169.14
		c63.6,90.99,204.15,72.19,289.7,98.45c144.94,44.49,173.81,110.24,294.25,107.41c67.08-1.58,132.4-16.55,185.19-99.07"/>
	<path class="st0" d="M69.01,264.04c243.53-92.83,334.01-84.43,364.2-50.62c36.78,41.19-20.84,100.91,18.77,170.78
		c54.27,95.73,216.66,90.68,286.96,108.84c136,35.15,167.11,67.2,298.1,65.84c75.57-0.78,144.41-6.68,196.42-58.23"/>
	<path class="st0" d="M69.01,302.2c264.07-108.53,356.26-106.65,382.1-74.07c30.36,38.29-38.09,100.1-5.85,172.43
		c44.8,100.52,229.33,108.58,284.22,119.24c127.34,24.71,160.41,24.36,301.94,24.28c84.07,0.13,156.41,3.18,207.66-17.38"/>
	<path class="st0" d="M69.01,340.37c284.61-124.22,378.62-128.94,400-97.53c24.06,35.33-55.45,99.29-30.48,174.07
		c35.16,105.32,242.01,125.73,281.48,129.63c118.89,11.73,153.71-18.75,305.79-17.28c92.57,0.89,168.41,13.04,218.9,23.46"/>
</g>
</svg>
