<?xml version="1.0" encoding="utf-8"?>
<!-- Generator: Adobe Illustrator 23.0.1, SVG Export Plug-In . SVG Version: 6.00 Build 0)  -->
<svg version="1.1" id="Layer_1" xmlns="http://www.w3.org/2000/svg" xmlns:xlink="http://www.w3.org/1999/xlink" x="0px" y="0px"
	 viewBox="0 0 1280 1024" style="enable-background:new 0 0 1280 1024;" xml:space="preserve">
<style type="text/css">
	.st0{fill:#EB452B;}
	.st1{fill:#EFA032;stroke:#000000;stroke-miterlimit:10;}
	.st2{fill:#EFA032;}
	.st3{fill:#46B59B;}
	.st4{fill:#017E7F;}
	.st5{fill:#052939;}
</style>
<path class="st0" d="M983.37,308.98l-92.59-104.94L813,308.98l-88.89-104.94l-76.54,104.94l-85.19-104.94L454.98,308.98
	l-76.54-104.94l-90.12,104.94l-81.48-104.94L100.65,308.98c-1.23,55.56-1.23,55.56-1.23,55.56l883.95,7.41"/>
<path class="st1" d="M100.65,447.25"/>
<path class="st2" d="M983.37,348.49l-92.59-104.94L813,348.49l-88.89-104.94l-76.54,104.94l-85.19-104.94L454.98,348.49
	l-76.54-104.94l-90.12,104.94l-81.48-104.94L100.65,348.49c-1.23,55.56-1.23,55.56-1.23,55.56l883.95,7.41"/>
<path class="st3" d="M983.37,384.28l-92.59-104.94L813,384.28l-88.89-104.94l-76.54,104.94l-85.19-104.94L454.98,384.28
	l-76.54-104.94l-90.12,104.94l-81.48-104.94L100.65,384.28c-1.23,55.56-1.23,55.56-1.23,55.56l883.95,7.41"/>
<path class="st4" d="M983.37,413.93l-92.59-104.94L813,413.93l-88.89-104.94l-76.54,104.94l-85.19-104.94L454.98,413.93
	l-76.54-104.94l-90.12,104.94l-81.48-104.94L100.65,413.93c-1.23,55.56-1.23,55.56-1.23,55.56l883.95,7.41"/>
<path class="st5" d="M983.37,449.04L890.78,344.1L813,449.04L724.11,344.1l-76.54,104.94L562.38,344.1L454.98,449.04L378.43,344.1
	l-90.12,104.94L206.83,344.1L100.65,449.04c-1.23,55.56-1.23,55.56-1.23,55.56L983.37,512"/>
</svg>
