<?xml version="1.0" encoding="utf-8"?>
<!-- Generator: Adobe Illustrator 23.0.1, SVG Export Plug-In . SVG Version: 6.00 Build 0)  -->
<svg version="1.1" id="Layer_1" xmlns="http://www.w3.org/2000/svg" xmlns:xlink="http://www.w3.org/1999/xlink" x="0px" y="0px"
	 viewBox="0 0 1280 1024" style="enable-background:new 0 0 1280 1024;" xml:space="preserve">
<style type="text/css">
	.st0{fill:#EFA032;stroke:#000000;stroke-miterlimit:10;}
	.st1{fill:#EB452B;}
	.st2{fill:#EFA032;}
	.st3{fill:#46B59B;}
	.st4{fill:#017E7F;}
	.st5{fill:#052939;}
</style>
<path class="st0" d="M-2649.7,415.39"/>
<polyline class="st1" points="-2649.7,-656.4 -2416.05,-1043.79 -2132.6,-656.4 -1855.44,-1043.79 -1660.17,-656.4 
	-1417.66,-1043.79 -1115.31,-656.4 -882.25,-1043.79 -561,-656.4 -264.94,-1043.79 40.56,-656.4 434.25,-1043.79 764.94,-643.8 
	1117.69,-1043.79 1470.43,-643.8 1820.03,-1043.79 2235.76,-669 2594.8,-1043.79 2871.96,-643.8 3243.6,-1043.79 3514.46,-643.8 
	3741.4,-1031.19 3756.97,-369.8 -2649.7,-435.94 "/>
<polyline class="st2" points="-2649.7,-527.23 -2416.05,-914.62 -2132.6,-527.23 -1855.44,-914.62 -1660.17,-527.23 
	-1417.66,-914.62 -1115.31,-527.23 -882.25,-914.62 -561,-527.23 -264.94,-914.62 40.56,-527.23 434.25,-914.62 764.94,-514.63 
	1117.69,-914.62 1470.43,-514.63 1820.03,-914.62 2235.76,-539.83 2594.8,-914.62 2871.96,-514.63 3243.6,-914.62 3514.46,-514.63 
	3741.4,-902.02 3756.97,-240.62 -2649.7,-306.76 "/>
<polyline class="st3" points="-2649.7,-412.99 -2416.05,-800.38 -2132.6,-412.99 -1855.44,-800.38 -1660.17,-412.99 
	-1417.66,-800.38 -1115.31,-412.99 -882.25,-800.38 -561,-412.99 -264.94,-800.38 40.56,-412.99 434.25,-800.38 764.94,-400.4 
	1117.69,-800.38 1470.43,-400.4 1820.03,-800.38 2235.76,-425.59 2594.8,-800.38 2871.96,-400.4 3243.6,-800.38 3514.46,-400.4 
	3741.4,-787.79 3756.97,-126.39 -2649.7,-192.53 "/>
<polyline class="st4" points="-2649.7,-286.6 -2416.05,-673.99 -2132.6,-286.6 -1855.44,-673.99 -1660.17,-286.6 -1417.66,-673.99 
	-1115.31,-286.6 -882.25,-673.99 -561,-286.6 -264.94,-673.99 40.56,-286.6 434.25,-673.99 764.94,-274.01 1117.69,-673.99 
	1470.43,-274.01 1820.03,-673.99 2235.76,-299.2 2594.8,-673.99 2871.96,-274.01 3243.6,-673.99 3514.46,-274.01 3741.4,-661.4 
	3756.97,0 -2649.7,-66.14 "/>
<polyline class="st5" points="-2649.7,-118.92 -2416.05,-506.31 -2132.6,-118.92 -1855.44,-506.31 -1660.17,-118.92 
	-1417.66,-506.31 -1115.31,-118.92 -882.25,-506.31 -561,-118.92 -264.94,-506.31 40.56,-118.92 434.25,-506.31 764.94,-106.32 
	1117.69,-506.31 1470.43,-106.32 1820.03,-506.31 2235.76,-131.52 2594.8,-506.31 2871.96,-106.32 3243.6,-506.31 3514.46,-106.32 
	3741.4,-493.71 3756.97,167.68 -2649.7,101.54 "/>
</svg>
