<?xml version="1.0" encoding="utf-8"?>
<!-- Generator: Adobe Illustrator 23.0.1, SVG Export Plug-In . SVG Version: 6.00 Build 0)  -->
<svg version="1.1" id="Layer_1" xmlns="http://www.w3.org/2000/svg" xmlns:xlink="http://www.w3.org/1999/xlink" x="0px" y="0px"
	 viewBox="0 0 1280 1024" style="enable-background:new 0 0 1280 1024;" xml:space="preserve">
<style type="text/css">
	.st0{fill:#EB452B;}
	.st1{fill:#EFA032;}
	.st2{fill:#46B59B;}
	.st3{fill:#017E7F;}
	.st4{fill:#052939;}
</style>
<polyline class="st0" points="-2649.7,-473.74 -2416.05,-537.05 -2132.6,-473.74 -1855.44,-537.05 -1660.17,-473.74 
	-1417.66,-537.05 -1115.31,-473.74 -882.25,-537.05 -561,-473.74 -264.94,-537.05 40.56,-473.74 434.25,-537.05 764.94,-471.68 
	1117.69,-537.05 1470.43,-471.68 1820.03,-537.05 2235.76,-475.8 2594.8,-537.05 2871.96,-471.68 3243.6,-537.05 3514.46,-471.68 
	3741.4,-534.99 3756.97,-426.9 -2649.7,-437.71 "/>
<polyline class="st1" points="-2649.7,-452.63 -2416.05,-515.94 -2132.6,-452.63 -1855.44,-515.94 -1660.17,-452.63 
	-1417.66,-515.94 -1115.31,-452.63 -882.25,-515.94 -561,-452.63 -264.94,-515.94 40.56,-452.63 434.25,-515.94 764.94,-450.57 
	1117.69,-515.94 1470.43,-450.57 1820.03,-515.94 2235.76,-454.69 2594.8,-515.94 2871.96,-450.57 3243.6,-515.94 3514.46,-450.57 
	3741.4,-513.88 3756.97,-405.79 -2649.7,-416.59 "/>
<polyline class="st2" points="-2649.7,-433.96 -2416.05,-497.27 -2132.6,-433.96 -1855.44,-497.27 -1660.17,-433.96 
	-1417.66,-497.27 -1115.31,-433.96 -882.25,-497.27 -561,-433.96 -264.94,-497.27 40.56,-433.96 434.25,-497.27 764.94,-431.9 
	1117.69,-497.27 1470.43,-431.9 1820.03,-497.27 2235.76,-436.02 2594.8,-497.27 2871.96,-431.9 3243.6,-497.27 3514.46,-431.9 
	3741.4,-495.21 3756.97,-387.12 -2649.7,-397.92 "/>
<polyline class="st3" points="-2649.7,-413.3 -2416.05,-476.61 -2132.6,-413.3 -1855.44,-476.61 -1660.17,-413.3 -1417.66,-476.61 
	-1115.31,-413.3 -882.25,-476.61 -561,-413.3 -264.94,-476.61 40.56,-413.3 434.25,-476.61 764.94,-411.24 1117.69,-476.61 
	1470.43,-411.24 1820.03,-476.61 2235.76,-415.36 2594.8,-476.61 2871.96,-411.24 3243.6,-476.61 3514.46,-411.24 3741.4,-474.55 
	3756.97,-366.46 -2649.7,-377.27 "/>
<polyline class="st4" points="-2649.7,-385.89 -2416.05,-449.21 -2132.6,-385.89 -1855.44,-449.21 -1660.17,-385.89 
	-1417.66,-449.21 -1115.31,-385.89 -882.25,-449.21 -561,-385.89 -264.94,-449.21 40.56,-385.89 434.25,-449.21 764.94,-383.84 
	1117.69,-449.21 1470.43,-383.84 1820.03,-449.21 2235.76,-387.95 2594.8,-449.21 2871.96,-383.84 3243.6,-449.21 3514.46,-383.84 
	3741.4,-447.15 3756.97,-339.05 -2649.7,-349.86 "/>
</svg>
