<?xml version="1.0" encoding="utf-8"?>
<!-- Generator: Adobe Illustrator 23.0.1, SVG Export Plug-In . SVG Version: 6.00 Build 0)  -->
<svg version="1.1" id="Layer_1" xmlns="http://www.w3.org/2000/svg" xmlns:xlink="http://www.w3.org/1999/xlink" x="0px" y="0px"
	 viewBox="0 0 1280 1024" style="enable-background:new 0 0 1280 1024;" xml:space="preserve">
<style type="text/css">
	.st0{fill:none;stroke:#46B59B;stroke-width:3;stroke-miterlimit:10;}
	.st1{fill:none;stroke:#3AAC96;stroke-width:3;stroke-miterlimit:10;}
	.st2{fill:none;stroke:#2FA392;stroke-width:3;stroke-miterlimit:10;}
	.st3{fill:none;stroke:#249A8D;stroke-width:3;stroke-miterlimit:10;}
	.st4{fill:none;stroke:#189088;stroke-width:3;stroke-miterlimit:10;}
	.st5{fill:none;stroke:#0D8784;stroke-width:3;stroke-miterlimit:10;}
	.st6{fill:none;stroke:#017E7F;stroke-width:3;stroke-miterlimit:10;}
</style>
<g>
	<path class="st0" d="M59.52,100.26c161.36-30.07,245.4,4.05,292.59,43.21c56.65,47,46.87,90.16,117.28,164.2
		c28.68,30.15,275.8,453.09,388.89,452.46c137.04-0.77,26.14-471.03,158.02-470.98c78.2,0.04,142.38,51.47,185.19,96.3"/>
	<path class="st1" d="M59.52,138.43c161.36-30.07,263.3-19.4,310.49,19.75c56.65,47,28.97,113.62,99.38,187.65
		c28.68,30.15,250.29,399.08,363.37,398.45c137.04-0.77,51.65-417.02,183.54-416.97c78.2,0.04,142.38,51.47,185.19,96.3"/>
	<path class="st2" d="M59.52,176.59c161.36-30.07,281.2-42.86,328.4-3.7c56.65,47,11.07,137.07,81.48,211.11
		c28.68,30.15,224.77,345.07,337.86,344.44c137.04-0.77,77.17-363.01,209.05-362.95c78.2,0.04,142.38,51.47,185.19,96.3"/>
	<path class="st3" d="M59.52,214.76c161.36-30.07,299.1-66.32,346.3-27.16c56.65,47-6.83,160.53,63.58,234.57
		c28.68,30.15,199.26,291.06,312.35,290.43c137.04-0.77,102.68-309,234.57-308.94c78.2,0.04,142.38,51.47,185.19,96.3"/>
	<path class="st4" d="M59.52,252.93c161.36-30.07,317-89.77,364.2-50.62c56.65,47-24.74,183.99,45.68,258.02
		c28.68,30.15,173.75,237.05,286.83,236.42c137.04-0.77,128.19-254.99,260.08-254.93c78.2,0.04,142.38,51.47,185.19,96.3"/>
	<path class="st5" d="M59.52,291.09c161.36-30.07,334.9-113.23,382.1-74.07c56.65,47-42.64,207.44,27.78,281.48
		c28.68,30.15,148.23,183.04,261.32,182.41c137.04-0.77,153.71-200.98,285.6-200.92c78.2,0.04,142.38,51.47,185.19,96.3"/>
	<path class="st6" d="M59.52,329.26c161.36-30.07,352.8-136.69,400-97.53c56.65,47-60.54,230.9,9.88,304.94
		c28.68,30.15,122.72,129.03,235.8,128.4c137.04-0.77,179.22-146.97,311.11-146.91c78.2,0.04,142.38,51.47,185.19,96.3"/>
</g>
</svg>
